PathFileType	4	(X/Y/Z)	s04c0401.trc
DataRate	CameraRate	NumFrames	NumMarkers	Units	OrigDataRate	OrigDataStartFrame	OrigNumFrames
200	200	4	50	mm	200	0	2000
Frame#	Time	racr			lacr			c7			jug			rlel			rdr			llel			ldr			s2			lic			ric			lasi			rasi			rpsi			lpsi			rgt			lgt			rth1			rth2			rth3			rth4			rlfc			rmfc			rsh1			rsh2			rsh3			rsh4			rlmal			rmmal			rcal			rtoe			rmt5			lth1			lth2			lth4			lth3			llfc			lmfc			lsh1			lsh2			lsh3			lsh4			llmal			lmmal			lcal			ltoe			lmt5			SBIKE			LBIKE			RBIKE			
		X1	Y1	Z1	X2	Y2	Z2	X3	Y3	Z3	X4	Y4	Z4	X5	Y5	Z5	X6	Y6	Z6	X7	Y7	Z7	X8	Y8	Z8	X9	Y9	Z9	X10	Y10	Z10	X11	Y11	Z11	X12	Y12	Z12	X13	Y13	Z13	X14	Y14	Z14	X15	Y15	Z15	X16	Y16	Z16	X17	Y17	Z17	X18	Y18	Z18	X19	Y19	Z19	X20	Y20	Z20	X21	Y21	Z21	X22	Y22	Z22	X23	Y23	Z23	X24	Y24	Z24	X25	Y25	Z25	X26	Y26	Z26	X27	Y27	Z27	X28	Y28	Z28	X29	Y29	Z29	X30	Y30	Z30	X31	Y31	Z31	X32	Y32	Z32	X33	Y33	Z33	X34	Y34	Z34	X35	Y35	Z35	X36	Y36	Z36	X37	Y37	Z37	X38	Y38	Z38	X39	Y39	Z39	X40	Y40	Z40	X41	Y41	Z41	X42	Y42	Z42	X43	Y43	Z43	X44	Y44	Z44	X45	Y45	Z45	X46	Y46	Z46	X47	Y47	Z47	X48	Y48	Z48	X49	Y49	Z49	X50	Y50	Z50	
0	0.0000	466.604632	1475.998819	-149.178645	472.861706	1479.112861	-422.706635	444.473945	1520.938200	-294.815461	460.596843	1375.261397	-291.817677	509.912053	1169.286836	-46.200540	700.222809	946.540725	-106.921252	504.758545	1194.474755	-531.970133	687.066183	941.872120	-492.147375	-59.090135	1181.295691	-295.093957	102.961709	1188.302758	-448.668524	103.326362	1180.052309	-133.585265	135.728065	1140.020028	-402.590277	146.711158	1125.523032	-177.055444	-26.284044	1220.582533	-251.212258	-32.404983	1225.084042	-326.431084	48.728241	1118.412917	-116.720926	55.134231	1117.948538	-488.880648	133.155533	974.003154	-93.711193	191.935337	908.768210	-100.712459	214.163130	825.821364	-102.492697	221.426799	925.397444	-117.075521	265.862045	689.262838	-125.229964	244.427751	672.176878	-237.419800	193.686707	584.335581	-101.756442	168.790344	498.048002	-116.257777	102.397441	441.775275	-124.320592	195.965483	485.007204	-140.864119	31.509394	309.454335	-134.485259	54.845614	312.597436	-218.790722	-43.942082	297.466591	-174.771320	236.917032	192.419905	-161.125895	165.288590	190.870594	-106.912893	116.547651	1066.227204	-499.111912	201.457376	1054.681663	-509.836400	216.898690	1085.496749	-496.082249	270.896694	1000.186271	-523.925137	409.761788	913.400205	-510.908817	453.592813	900.755033	-404.857975	377.126867	800.626957	-523.274577	360.144653	719.637961	-492.968395	301.928772	653.666817	-480.164030	386.781528	714.017422	-464.813487	231.028849	529.458154	-454.121889	233.542509	540.347409	-366.837514	150.257917	512.455717	-405.100465	449.564044	482.543219	-423.063590	374.806274	447.657544	-480.593764	-185.988179	934.524405	-286.683936	-17.469368	79.448885	-485.872947	-17.544844	79.295354	-84.891043	
1	0.0050	466.495624	1475.939170	-149.157082	472.827207	1478.994976	-422.868701	444.481871	1521.000321	-294.953685	460.615972	1375.399190	-291.920116	509.713179	1169.182143	-46.169872	700.254562	946.644784	-106.697547	504.435204	1194.367371	-531.994738	686.926024	941.951934	-492.212956	-58.968013	1181.162892	-295.623642	103.082899	1188.124961	-448.782990	103.226514	1180.272453	-133.709539	135.587709	1139.729777	-402.212722	146.561198	1125.689758	-177.121189	-26.356634	1220.308164	-251.282122	-32.267951	1225.103198	-326.752038	48.630932	1118.591156	-116.802046	55.244213	1117.787617	-488.992929	133.022782	974.087825	-93.691793	191.740488	908.888888	-100.807669	213.973800	825.919060	-102.672680	221.340276	925.521790	-117.055902	265.833285	689.527025	-125.406391	244.302228	672.456830	-237.581158	193.622401	584.534606	-101.885297	168.599148	498.318184	-116.369143	102.169333	442.127142	-124.398405	195.739219	485.295355	-140.980518	31.098904	309.896276	-134.493217	54.503297	312.925528	-218.790937	-44.346899	297.885009	-174.769683	236.475018	192.740290	-161.122755	164.847429	191.243255	-106.921255	116.597851	1065.988614	-499.162532	201.483565	1054.355551	-509.868495	216.962737	1085.214229	-496.131689	270.879344	999.859760	-523.913941	409.636498	912.912703	-510.877807	453.492868	900.264769	-404.814434	377.141852	800.032902	-523.288288	360.179368	719.065651	-492.944269	301.999586	653.042061	-480.205197	386.802153	713.437299	-464.716165	231.215155	528.782872	-454.162259	233.702484	539.637536	-366.830897	150.407246	511.590730	-405.104802	449.824960	482.366531	-423.060597	375.192594	447.304513	-480.600896	-185.995361	934.525425	-286.685231	-17.475972	79.453703	-485.881791	-17.538568	79.314965	-84.917690	
2	0.0100	466.345282	1475.892518	-149.076337	472.819412	1478.904910	-423.086683	444.497569	1521.069518	-295.055625	461.731817	1375.508528	-291.794812	509.525029	1169.090171	-46.164652	700.259956	946.717035	-106.575124	504.196439	1194.244959	-531.947165	686.851698	942.035755	-492.261777	-58.962010	1181.261086	-295.857830	103.160272	1187.977277	-448.891237	103.100815	1180.519317	-133.853115	135.529708	1139.547859	-402.105388	146.413346	1125.920936	-177.223566	-26.421005	1220.031659	-251.914623	-32.215539	1225.166131	-327.048974	48.446172	1118.875133	-116.863010	55.323853	1117.578250	-489.103932	132.801928	974.189575	-93.860705	191.597858	909.059612	-100.912227	213.835927	826.160562	-102.792706	221.194170	925.750766	-117.090035	265.828794	689.812700	-125.568791	244.273399	672.771693	-237.719657	193.625264	584.796965	-102.006607	168.475269	498.704897	-116.470236	101.980060	442.530583	-124.432814	195.636245	485.635638	-141.089416	30.875644	310.326356	-134.516379	54.304403	313.230187	-218.831993	-44.700713	298.407371	-174.793048	236.092913	193.114740	-161.119408	164.434873	191.654097	-106.903003	116.610961	1065.767654	-499.200036	201.489127	1054.065461	-509.908912	216.977704	1084.905520	-496.186092	270.823339	999.482015	-523.872633	409.518537	912.385400	-510.787890	453.393811	899.658949	-404.831635	377.099367	799.543772	-523.246631	360.218662	718.496144	-492.888470	302.096152	652.380700	-480.139990	386.819822	712.844190	-464.585789	231.353193	528.151307	-454.141955	233.844689	538.994374	-366.842653	150.609133	510.758208	-405.123265	450.068591	482.222826	-423.058200	375.503071	447.013489	-480.596942	-185.998065	934.533385	-286.683363	-17.470736	79.439270	-485.871343	-17.535454	79.293784	-84.898333	
3	0.0150	466.226483	1475.849681	-148.974982	472.767982	1478.767585	-423.241969	444.477255	1521.149239	-295.201301	461.772873	1375.552011	-291.856923	509.389723	1169.003460	-46.176926	700.227306	946.751576	-106.552564	504.172192	1193.933977	-531.403337	686.860835	942.071859	-492.254807	-59.076558	1181.203853	-296.094344	103.231668	1187.839434	-449.002979	102.911242	1180.705483	-133.989752	135.627373	1139.480451	-402.345142	146.099055	1126.247188	-177.464636	-26.562131	1220.192225	-252.185860	-31.956538	1225.933266	-327.859941	48.271749	1119.156222	-116.939077	55.365944	1117.391412	-489.219030	132.785528	974.727640	-93.212649	191.967773	908.851494	-100.984535	213.776261	826.505438	-102.900509	221.040501	926.020638	-117.215450	265.937196	690.179627	-125.702671	244.308733	673.149090	-237.860280	193.677165	585.158628	-102.123332	167.532357	498.545049	-117.357516	101.881967	442.970197	-124.480253	195.603181	485.906473	-141.133477	30.640348	310.792818	-134.392814	54.132720	313.604614	-218.854319	-44.920623	298.951684	-174.788369	235.811541	193.286099	-161.130619	164.090617	191.998910	-106.914834	116.754038	1065.801283	-499.524967	201.460995	1053.801711	-509.942200	216.966771	1084.839185	-496.528418	270.763181	999.129676	-523.843937	409.334763	911.953102	-510.663261	453.172304	899.258275	-404.724805	377.036137	798.936712	-523.178383	360.232768	717.897465	-492.937696	302.101600	651.746264	-480.119809	386.867971	712.372617	-464.843129	231.549515	527.310053	-453.918245	233.868110	538.430552	-366.575741	150.719474	509.953959	-405.127004	450.263657	482.077299	-423.041291	375.801741	446.742648	-480.589913	-186.065488	934.492880	-286.924164	-17.472652	79.453885	-485.880122	-17.545545	79.307920	-84.912777	
